<?xml version="1.0" standalone="no"?>
<!DOCTYPE svg PUBLIC "-//W3C//DTD SVG 20010904//EN"
 "http://www.w3.org/TR/2001/REC-SVG-20010904/DTD/svg10.dtd">
<svg version="1.0" xmlns="http://www.w3.org/2000/svg"
 width="300.000000pt" height="225.000000pt" viewBox="0 0 300.000000 225.000000"
 preserveAspectRatio="xMidYMid meet">
<g transform="translate(0.000000,225.000000) scale(0.100000,-0.100000)"
fill="#000000" stroke="none">
<path d="M1340 1863 c0 -4 -18 -32 -41 -62 -22 -29 -39 -54 -37 -56 4 -2 118
-25 129 -25 4 0 5 8 2 18 -9 36 147 63 238 42 80 -18 164 -67 215 -123 58 -64
69 -53 16 17 -47 61 -137 126 -214 152 -57 20 -185 25 -250 11 -31 -6 -38 -5
-38 7 0 8 -4 18 -10 21 -5 3 -10 3 -10 -2z m60 -78 c-19 -14 -44 -25 -57 -25
-26 0 -27 3 -13 31 8 15 21 19 57 19 l47 0 -34 -25z"/>
<path d="M955 1759 l-16 -59 -49 0 c-45 0 -49 2 -55 29 -3 15 -18 40 -33 54
l-27 26 -75 -26 c-41 -15 -76 -27 -78 -28 -1 -2 7 -26 18 -55 11 -29 19 -54
18 -55 -2 -2 -24 -19 -51 -39 l-47 -36 -48 34 -47 34 -47 -69 -47 -68 44 -39
45 -39 -12 -51 -13 -51 -60 -3 -60 -3 3 -80 c4 -98 21 -122 89 -127 40 -3 46
-7 58 -35 14 -32 14 -33 -31 -64 -24 -18 -44 -36 -44 -39 0 -9 112 -151 131
-167 11 -9 23 -4 59 27 l44 38 27 -20 c26 -20 26 -20 12 -70 -15 -49 -15 -51
8 -73 18 -17 153 -65 182 -65 2 0 10 25 17 55 l13 55 54 0 c46 0 53 -3 53 -20
0 -10 13 -35 30 -53 l30 -34 77 28 c43 15 77 31 76 36 -1 4 -10 30 -20 57 -15
40 -15 50 -5 54 8 2 29 17 47 33 18 16 35 29 39 29 3 0 25 -14 48 -30 22 -17
44 -30 47 -30 3 0 26 30 51 66 l45 66 -46 42 -45 41 15 53 16 52 57 0 58 0 0
77 c0 70 -3 80 -26 105 -24 24 -32 26 -68 22 -40 -6 -42 -5 -55 32 -13 36 -12
38 12 56 14 10 35 26 47 36 l21 17 -59 75 c-85 108 -81 106 -135 64 -44 -35
-46 -35 -71 -19 -30 20 -30 20 -11 76 15 42 15 44 -7 65 -13 12 -60 32 -105
46 l-81 25 -17 -58z m-155 -19 c17 -42 47 -60 96 -60 44 0 75 24 89 71 7 22
27 24 90 7 36 -10 45 -16 45 -34 0 -12 6 -25 13 -28 8 -3 6 -9 -7 -20 -18 -15
-18 -17 -3 -34 9 -10 17 -24 17 -30 0 -7 15 -20 34 -29 32 -15 36 -15 69 6 48
29 60 27 99 -21 42 -51 43 -82 4 -113 -27 -21 -27 -24 -16 -66 14 -52 33 -68
82 -69 20 0 39 -4 42 -9 4 -5 9 -37 12 -70 l7 -61 -42 0 c-23 0 -40 -4 -37 -8
7 -12 -33 -44 -44 -37 -6 4 -10 -10 -10 -30 0 -22 -4 -34 -10 -30 -16 10 -12
-11 5 -25 8 -7 15 -18 15 -26 0 -7 9 -19 21 -27 41 -29 15 -124 -33 -122 -13
1 -45 11 -71 23 -58 26 -63 27 -47 7 10 -12 10 -15 -1 -15 -8 0 -23 -11 -33
-25 -10 -14 -25 -25 -32 -25 -17 0 -18 -28 -3 -67 8 -22 7 -30 -5 -39 -9 -6
-13 -14 -9 -18 4 -4 0 -4 -10 0 -9 3 -17 2 -17 -3 0 -5 -18 -9 -40 -10 -34 -2
-42 2 -50 20 -4 12 -21 34 -37 48 -37 34 -99 30 -113 -7 -5 -13 -15 -23 -22
-22 -8 2 -13 -7 -13 -20 -1 -43 -25 -45 -119 -9 -27 10 -28 12 -22 62 7 64 -9
90 -65 105 -36 10 -43 9 -59 -10 -26 -30 -58 -18 -97 36 -18 24 -33 48 -33 52
0 5 14 24 31 43 24 27 29 40 25 64 -9 43 -55 83 -102 87 l-39 3 0 65 0 65 35
5 c48 8 60 17 76 56 22 53 18 87 -16 119 -37 36 -38 52 -2 94 28 34 28 34 59
17 33 -16 93 -22 93 -8 0 4 10 12 22 17 12 6 30 21 40 35 15 21 17 33 10 72
l-9 47 36 15 c59 25 87 21 101 -14z"/>
<path d="M820 1637 c-3 -3 -20 -7 -38 -10 -19 -3 -58 -20 -89 -39 -275 -165
-260 -553 27 -692 60 -29 73 -31 170 -31 99 0 110 2 172 33 116 57 173 127
215 267 35 114 -14 271 -112 364 -76 72 -148 103 -254 108 -47 3 -88 3 -91 0z
m227 -57 c66 -29 146 -111 178 -182 53 -118 44 -242 -26 -347 -70 -105 -181
-164 -309 -164 -101 0 -173 28 -249 99 -83 77 -116 151 -116 264 0 72 4 94 28
146 85 183 308 266 494 184z"/>
<path d="M630 1251 l0 -129 48 5 c79 7 91 12 108 45 21 41 21 131 0 163 -17
26 -70 45 -123 45 l-33 0 0 -129z m101 58 c37 -37 12 -139 -33 -139 -4 0 -8
36 -8 80 0 85 6 94 41 59z"/>
<path d="M840 1253 l0 -128 62 2 c60 1 63 3 66 27 3 24 1 26 -37 26 -37 0 -41
2 -41 25 0 22 4 25 35 25 31 0 34 3 31 23 -2 17 -11 23 -34 25 -27 3 -32 7
-32 29 0 24 3 25 35 20 33 -5 35 -4 35 24 0 29 0 29 -60 29 l-60 0 0 -127z"/>
<path d="M1000 1265 c36 -148 32 -140 71 -139 l34 1 26 104 c14 57 29 114 33
127 7 20 4 22 -27 22 l-34 0 -13 -90 c-7 -49 -17 -87 -21 -84 -5 3 -9 15 -9
26 0 12 -5 50 -11 85 -11 62 -11 63 -44 63 l-32 0 27 -115z"/>
<path d="M1873 1571 c-39 -14 -72 -30 -72 -36 -1 -5 6 -32 15 -60 13 -38 14
-50 5 -53 -7 -2 -28 -17 -46 -33 -18 -16 -35 -29 -39 -29 -3 0 -26 15 -51 32
-28 20 -49 29 -53 22 -4 -5 -26 -37 -49 -70 l-41 -61 47 -37 48 -38 -16 -54
-16 -54 -57 0 -58 0 1 -82 c0 -80 1 -84 30 -107 24 -19 37 -22 68 -17 36 5 38
4 50 -31 13 -35 12 -37 -12 -55 -14 -10 -35 -26 -47 -36 l-21 -17 59 -75 c85
-108 81 -106 133 -65 24 19 46 35 49 35 3 -1 16 -9 28 -20 24 -20 24 -20 8
-67 -16 -46 -16 -48 6 -69 13 -12 60 -33 104 -46 l82 -25 16 59 16 58 49 0
c46 0 50 -2 56 -29 3 -15 18 -40 33 -54 l27 -26 75 26 c41 15 76 27 78 28 1 2
-7 26 -18 55 -11 29 -19 54 -18 55 2 2 24 19 50 38 l46 36 48 -34 47 -34 48
67 48 67 -44 42 -45 41 12 51 11 50 60 3 60 3 -2 80 c-3 99 -21 125 -87 125
-38 0 -44 4 -58 32 -9 17 -16 32 -16 34 0 1 20 17 45 35 25 18 45 36 45 39 0
9 -112 151 -131 167 -11 9 -23 4 -59 -27 l-44 -38 -27 20 -27 20 15 50 c13 46
13 52 -3 69 -13 14 -161 69 -186 69 -3 0 -11 -25 -18 -55 l-13 -55 -48 0 c-45
0 -50 2 -63 33 -7 17 -24 41 -37 53 l-24 20 -72 -25z m102 -44 c20 -49 37 -58
97 -55 52 3 53 4 73 46 22 47 29 49 104 27 l52 -16 -3 -39 c-1 -22 -6 -40 -11
-40 -5 0 -3 -7 4 -16 7 -9 18 -26 24 -37 15 -30 60 -45 86 -29 55 34 66 33
106 -9 23 -24 39 -51 39 -67 2 -30 -21 -62 -44 -62 -10 0 -12 -7 -8 -22 4 -13
9 -35 12 -49 7 -30 37 -49 91 -58 l38 -6 0 -70 c0 -63 -2 -70 -19 -67 -10 2
-23 -2 -28 -10 -8 -10 -11 -10 -15 0 -8 20 -43 -32 -43 -65 0 -21 -3 -24 -9
-13 -6 8 -7 18 -5 22 3 4 3 8 -1 8 -3 0 -9 -10 -14 -22 -6 -16 -1 -32 21 -65
16 -24 33 -43 37 -43 12 0 5 -64 -10 -87 -17 -28 -61 -24 -131 12 -16 8 -30
10 -33 4 -4 -5 0 -9 7 -9 7 0 -4 -16 -25 -35 -39 -36 -57 -43 -57 -23 0 6 -2
9 -5 7 -2 -3 3 -28 11 -57 15 -49 14 -52 -5 -74 -15 -15 -21 -17 -21 -7 0 11
-2 11 -9 1 -11 -18 -74 -19 -79 -2 -3 8 -20 28 -38 47 -25 25 -42 33 -69 33
-22 0 -34 -4 -30 -10 3 -5 0 -10 -8 -10 -8 0 -20 -14 -28 -32 -11 -27 -14 -29
-20 -12 -6 16 -8 14 -8 -9 -1 -37 -16 -41 -81 -19 l-55 19 3 60 c3 56 1 61
-25 79 -34 23 -95 45 -87 32 3 -5 -2 -17 -12 -27 -16 -15 -24 -16 -44 -7 -14
6 -28 15 -32 21 -3 5 -18 24 -32 40 -33 38 -33 45 4 80 32 31 37 53 19 88 -23
43 -54 65 -94 69 l-40 3 -3 53 c-4 60 8 82 45 82 37 0 60 16 72 51 19 56 14
93 -19 124 -36 34 -36 39 -7 82 24 36 51 42 83 18 30 -23 58 -18 109 21 l47
37 -6 51 c-6 59 -2 69 39 84 55 19 75 15 90 -21z"/>
<path d="M1993 1419 c-123 -21 -233 -104 -287 -219 -28 -59 -31 -74 -31 -165
0 -91 3 -106 31 -165 70 -148 231 -242 384 -226 118 14 195 51 271 134 46 50
59 72 78 137 36 122 20 234 -48 340 -24 36 -96 109 -110 110 -3 1 -25 11 -47
23 -36 18 -148 44 -179 41 -5 -1 -33 -5 -62 -10z m224 -53 c73 -33 153 -112
186 -183 18 -39 22 -66 22 -148 0 -89 -3 -106 -28 -156 -34 -70 -109 -142
-185 -177 -48 -22 -71 -27 -147 -27 -80 0 -97 3 -155 31 -303 144 -281 561 35
673 84 30 187 25 272 -13z"/>
<path d="M1853 1160 c-37 -15 -58 -58 -57 -119 0 -100 56 -159 124 -131 41 17
60 57 60 125 0 66 -18 106 -55 123 -30 14 -42 14 -72 2z m68 -89 c13 -44 3
-88 -24 -105 -23 -15 -37 2 -44 50 -11 87 45 132 68 55z"/>
<path d="M2233 1158 c-12 -6 -27 -23 -33 -38 -17 -41 -3 -78 42 -106 46 -30
45 -50 -4 -47 -24 1 -37 -4 -45 -17 -17 -26 8 -45 59 -45 52 0 80 32 76 84 -2
29 -10 41 -40 60 -51 33 -50 89 1 61 17 -8 22 -6 32 11 6 12 7 25 2 30 -15 15
-67 19 -90 7z"/>
<path d="M2020 1035 l0 -125 28 0 c26 0 27 2 24 45 -4 42 -2 45 21 45 13 0 36
9 51 21 20 16 26 29 26 60 0 57 -26 79 -95 79 l-55 0 0 -125z m95 45 c0 -18
-6 -26 -22 -28 -20 -3 -23 1 -23 28 0 27 3 31 23 28 16 -2 22 -10 22 -28z"/>
<path d="M1090 634 c0 -4 16 -28 35 -55 59 -79 161 -145 264 -169 51 -12 167
-9 217 5 16 5 23 1 27 -16 6 -21 11 -17 51 41 l46 65 -58 12 c-78 17 -84 16
-78 -5 5 -15 -2 -21 -35 -31 -150 -45 -309 -3 -414 110 -44 48 -55 56 -55 43z
m573 -150 c3 -4 2 -15 -4 -25 -7 -14 -21 -19 -52 -19 l-42 1 30 24 c29 24 55
31 68 19z"/>
</g>
</svg>
